<?xml version="1.0" encoding="UTF-8"?>
<svg id="Layer_1" data-name="Layer 1" xmlns="http://www.w3.org/2000/svg" viewBox="0 0 40 40">
  <path d="M14.64,31.84c-.33-.21-.63-.48-.88-.79-.63-.79-.88-1.81-.88-2.82v-10.72c0-1.95,.85-3.87,2.47-4.95,2.47-1.64,5.52-.89,7.3,1.71,.48,.7,.7,1.55,.73,2.39,0,0,.26,7.48,.26,7.48l2.36,1.6c.58,.4,1.17,.79,1.75,1.19,.86,.58,1.6,.91,1.73,2.07,.05,.47-.05,.91-.31,1.31-.1,.15-.86,1.03-1.04,.94,3.2,1.72,2.9,5.76-.38,6.49H12.34c-.35,0-.7-.05-1.01-.21-1.5-.78-2.26-2.88-1.28-4.35s2.96-1.09,4.47-1.09l.11-.23Z"/>
  <circle cx="21.94" cy="6.64" r="4.36"/>
</svg>