<?xml version="1.0" encoding="UTF-8"?>
<svg id="Layer_1" data-name="Layer 1" xmlns="http://www.w3.org/2000/svg" viewBox="0 0 40 40">
  <polygon points="8.31 13.46 19.66 16.11 31 13.46 31 15.14 19.66 17.87 8.31 15.22 8.31 13.46"/>
  <path d="M8.31,16.35l11.04,2.58c.2,.05,.41,.05,.61,0l11.04-2.58v11.21c0,.19-.13,.36-.31,.4l-10.8,2.64c-.15,.04-.31,.04-.46,0l-2.4-.51-.04-6.99-5.42-1.21-.16,6.87-2.92-.87c-.1-.03-.18-.13-.18-.24v-11.31Z"/>
  <polygon points="12.65 23.22 15.83 23.94 15.83 29.81 12.65 29.04 12.65 23.22"/>
  <path d="M8.37,11.32c-.04,.06-.06,.15-.06,.3,0,.29-.08,.5,.16,.63,.08,.04,.21,.05,.3,.07l.98,.24,2.96,.71,5.9,1.42c.24,.06,.47,.11,.71,.17,.22,.05,.46,.05,.68,0l4.24-1.07,6.06-1.52c.33-.08,.66-.04,.71-.39,.07-.54-.02-.59-.45-.7l-.97-.24-2.95-.74-5.89-1.48c-.24-.06-.47-.12-.71-.18-.25-.06-.51-.06-.77,0l-4.44,1.12-6.03,1.52c-.24,.06-.37,.07-.44,.16Z"/>
</svg>